<?xml version="1.0" encoding="utf-8"?>
<!-- Generator: Adobe Illustrator 15.0.0, SVG Export Plug-In . SVG Version: 6.00 Build 0)  -->
<!DOCTYPE svg PUBLIC "-//W3C//DTD SVG 1.1//EN" "http://www.w3.org/Graphics/SVG/1.1/DTD/svg11.dtd">
<svg version="1.1" id="Layer_1" xmlns="http://www.w3.org/2000/svg" xmlns:xlink="http://www.w3.org/1999/xlink" x="0px" y="0px"
	 width="32px" height="32px" viewBox="0 0 32 32" enable-background="new 0 0 32 32" xml:space="preserve">
<path fill="#CC3333" d="M21.646,8.761V5.5h-1.117v3.261h-3.352v1.115h3.352v3.345h1.117V9.876H25V8.761H21.646z M16.279,5.5h-4.62
	c0,0-4.681,0.115-4.681,4.065c0,3.952,4.091,3.493,4.091,3.493v1.002c0,0.406,0.547,0.272,0.617,1.088
	c-0.277,0-5.685-0.142-5.685,3.438c0,3.578,4.767,3.411,4.767,3.411s5.51,0.249,5.51-4.197c0-2.664-3.146-3.522-3.146-4.597
	c0-1.074,2.372-1.385,2.372-3.909c0-1.514-0.14-2.428-1.336-2.966C14.169,5.952,16.279,6.2,16.279,5.5L16.279,5.5z M14.793,18.105
	c0.095,1.388-1.374,2.617-3.283,2.746c-1.907,0.131-3.53-0.891-3.624-2.277c-0.095-1.389,1.374-2.617,3.282-2.748
	C13.076,15.697,14.7,16.717,14.793,18.105z M11.983,12.111c-1.136,0.308-2.407-0.729-2.839-2.316
	c-0.433-1.587,0.137-3.122,1.274-3.431c1.136-0.309,2.407,0.729,2.839,2.315C13.69,10.267,13.12,11.802,11.983,12.111z"/>
</svg>
