<?xml version="1.0" encoding="utf-8"?>
<!-- Generator: Adobe Illustrator 15.0.0, SVG Export Plug-In . SVG Version: 6.00 Build 0)  -->
<!DOCTYPE svg PUBLIC "-//W3C//DTD SVG 1.1//EN" "http://www.w3.org/Graphics/SVG/1.1/DTD/svg11.dtd">
<svg version="1.1" id="Layer_1" xmlns="http://www.w3.org/2000/svg" xmlns:xlink="http://www.w3.org/1999/xlink" x="0px" y="0px"
	 width="32px" height="32px" viewBox="0 0 32 32" enable-background="new 0 0 32 32" xml:space="preserve">
<path fill="#CC3333" d="M21.255,10.484l0.013,0.457c0,4.672-3.506,10.059-9.919,10.059C9.378,21,7.547,20.415,6,19.41
	c0.272,0.035,0.551,0.049,0.831,0.049c1.636,0,3.138-0.564,4.331-1.516c-1.525-0.024-2.813-1.047-3.253-2.448
	c0.211,0.041,0.432,0.061,0.654,0.061c0.319,0,0.628-0.043,0.918-0.121c-1.598-0.325-2.797-1.755-2.797-3.47v-0.043
	c0.472,0.264,1.011,0.424,1.579,0.441c-0.933-0.632-1.552-1.715-1.552-2.942c0-0.647,0.176-1.255,0.473-1.779
	c1.721,2.14,4.289,3.546,7.188,3.696c-0.06-0.259-0.089-0.531-0.089-0.806c0-1.952,1.557-3.535,3.488-3.535
	c1.002,0,1.91,0.43,2.545,1.118c0.793-0.159,1.541-0.453,2.215-0.859c-0.262,0.826-0.813,1.519-1.533,1.957
	C21.705,9.129,22.376,8.937,23,8.656c-0.473,0.706-1.062,1.329-1.745,1.826V10.484z"/>
</svg>
