<?xml version="1.0" encoding="utf-8"?>
<!-- Generator: Adobe Illustrator 15.0.0, SVG Export Plug-In . SVG Version: 6.00 Build 0)  -->
<!DOCTYPE svg PUBLIC "-//W3C//DTD SVG 1.1//EN" "http://www.w3.org/Graphics/SVG/1.1/DTD/svg11.dtd">
<svg version="1.1" id="Layer_1" xmlns="http://www.w3.org/2000/svg" xmlns:xlink="http://www.w3.org/1999/xlink" x="0px" y="0px"
	 width="32px" height="32px" viewBox="0 0 32 32" enable-background="new 0 0 32 32" xml:space="preserve">
<g>
	<path fill="#767676" d="M20.195,11.714l-0.352-0.447l-5.665,2.671l-5.738-2.671l-0.266,0.446l5.996,4.912L20.195,11.714z
		 M21.4,7.023L6.532,7L5,9.505v9.294L6.614,20H21.46l1.541-1.2V9.505L21.4,7.023L21.4,7.023z M20.882,17.834H7.117V9.167h13.765
		V17.834z"/>
	<path fill="#CC3333" d="M20.195,11.714l-0.352-0.447l-5.665,2.671l-5.738-2.671l-0.266,0.446l5.996,4.912L20.195,11.714z
		 M21.4,7.023L6.532,7L5,9.505v9.294L6.614,20H21.46l1.541-1.2V9.505L21.4,7.023L21.4,7.023z M20.882,17.834H7.117V9.167h13.765
		V17.834z"/>
</g>
</svg>
